PathFileType	4	(X/Y/Z)	8_coords_data.trc
DataRate	CameraRate	NumFrames	NumMarkers	Units	OrigDataRate	OrigDataStartFrame	OrigNumFrames
30.0	30.0	8	21	m	30.0	1	48
Frame#	Time	THUMB_TIP	THUMB_IP	THUMB_MCP	THUMB_CMC	INDEX_TIP	INDEX_DIP	INDEX_PIP	INDEX_MCP	MIDDLE_TIP	MIDDLE_DIP	MIDDLE_PIP	MIDDLE_MCP	RING_TIP	RING_DIP	RING_PIP	RING_MCP	PINKY_TIP	PINKY_DIP	PINKY_PIP	PINKY_MCP	WRIST
X1	Y1	Z1	X2	Y2	Z2	X3	Y3	Z3	X4	Y4	Z4	X5	Y5	Z5	X6	Y6	Z6	X7	Y7	Z7	X8	Y8	Z8	X9	Y9	Z9	X10	Y10	Z10	X11	Y11	Z11	X12	Y12	Z12	X13	Y13	Z13	X14	Y14	Z14	X15	Y15	Z15	X16	Y16	Z16	X17	Y17	Z17	X18	Y18	Z18	X19	Y19	Z19	X20	Y20	Z20	X21	Y21	Z21
0	0.0	-0.044880100250244144	-0.10751899719238281	1.0110800170898437	-0.06384500122070312	-0.09226029968261719	1.0158499755859376	-0.07741010284423828	-0.07191539764404296	1.0131799926757812	-0.07709919738769531	-0.042573001861572264	1.0158499755859376	-0.07394290161132812	-0.1507989959716797	0.9849810180664063	-0.07388939666748047	-0.13191799926757813	0.98081201171875	-0.07495120239257813	-0.11202899932861328	0.97572998046875	-0.07100740051269532	-0.07624900054931641	0.9663720092773438	-0.06615509796142578	-0.071972900390625	0.9932949829101563	-0.06296640014648437	-0.08674669647216797	1.0014600219726562	-0.05425970077514648	-0.1009520034790039	0.991677001953125	-0.04874810028076172	-0.07015499877929687	0.9646640014648438	-0.04685150146484375	-0.09281520080566406	0.9968359985351563	-0.04621870040893555	-0.09366549682617188	0.998677978515625	-0.0372510986328125	-0.09467510223388671	1.00127001953125	-0.03246609878540039	-0.06572229766845702	0.9769110107421874	-0.009973489761352539	-0.12486499786376953	0.9932969970703125	-0.013300999641418457	-0.10637899780273438	0.9935469970703125	-0.01796660041809082	-0.0895071029663086	0.9925	-0.025337900161743164	-0.05997539901733399	0.9927550048828125	-0.06670760345458984	-0.003407520055770874	1.0203300170898437
1	0.03333333333333333	-0.04581510162353516	-0.10597100067138672	1.0115	-0.06422200012207031	-0.09043309783935546	1.0144400024414062	-0.07833370208740234	-0.06979930114746094	1.0110499877929688	-0.07633609771728515	-0.040719398498535155	1.0122000122070312	-0.07474379730224609	-0.1504739990234375	0.984458984375	-0.07535030364990235	-0.13034199523925782	0.9814860229492187	-0.07555470275878906	-0.11020999908447265	0.9751959838867188	-0.071868896484375	-0.07336049652099609	0.9671729736328125	-0.06642070007324219	-0.07082730102539063	1.0000700073242188	-0.06260079956054687	-0.08451329803466796	1.001469970703125	-0.05509199905395508	-0.09992870330810547	0.991573974609375	-0.050392799377441407	-0.0686729965209961	0.9660440063476563	-0.0529109992980957	-0.0697698974609375	1.0146300048828125	-0.04878870010375977	-0.08299369812011718	1.0098800048828125	-0.03781679916381836	-0.09407589721679688	0.99885400390625	-0.03389929962158203	-0.06465290069580078	0.9779580078125	-0.010770500183105469	-0.12352799987792969	0.9933770141601562	-0.01491349983215332	-0.10441100311279297	0.9938870239257812	-0.019220600128173827	-0.08742549896240234	0.9938319702148437	-0.02668230056762695	-0.06067430114746094	0.9949500122070313	-0.06609290313720703	-0.003213789939880371	1.0177999877929687
2	0.06666666666666667	-0.04585129928588867	-0.10474700164794921	1.011510009765625	-0.06448200225830078	-0.08958489990234375	1.014010009765625	-0.07861519622802735	-0.06887460327148437	1.010969970703125	-0.07675800323486329	-0.039706298828125	1.0121500244140624	-0.07463600158691407	-0.14945100402832032	0.9846790161132812	-0.0754176025390625	-0.12938600158691407	0.9817219848632812	-0.07575299835205078	-0.10931199645996094	0.9753350219726562	-0.07239320373535156	-0.07233589935302734	0.967156005859375	-0.06694899749755859	-0.06923829650878906	1.00075	-0.06273740005493164	-0.08316909790039062	1.00147998046875	-0.055251201629638674	-0.09887799835205079	0.9914500122070312	-0.05081629943847656	-0.06771399688720703	0.96585498046875	-0.05340039825439453	-0.06841069793701172	1.0158900146484375	-0.04888719940185547	-0.08113929748535156	1.0109099731445312	-0.03813399887084961	-0.09285040283203125	0.9994210205078125	-0.034412899017333985	-0.0634458999633789	0.97777001953125	-0.010557999610900879	-0.12218499755859374	0.9930070190429687	-0.014880000114440918	-0.10321199798583984	0.9935590209960937	-0.0193656005859375	-0.08610679626464844	0.9936329956054688	-0.02703630065917969	-0.05924710083007813	0.9948610229492187	-0.06669259643554687	-0.002056440114974975	1.01772998046875
3	0.1	-0.046454898834228514	-0.10411599731445312	1.0111300048828125	-0.0648927001953125	-0.08871160125732422	1.0141500244140624	-0.07908869934082031	-0.06799459838867188	1.0110399780273438	-0.07728500366210937	-0.038948699951171874	1.012219970703125	-0.07553040313720703	-0.14854600524902345	0.984635986328125	-0.07625489807128906	-0.12848699951171874	0.9816259765625	-0.07653829956054688	-0.10836799621582031	0.9751890258789062	-0.07294000244140625	-0.07170210266113282	0.9667570190429687	-0.06732039642333984	-0.06872489929199219	1.0000700073242188	-0.06332469940185546	-0.0825238037109375	1.0013800048828125	-0.05603179931640625	-0.09807720184326171	0.9911849975585938	-0.05146879959106445	-0.06679149627685547	0.96572998046875	-0.05388040161132813	-0.06709410095214843	1.0160700073242188	-0.04943489837646484	-0.08096959686279297	1.011030029296875	-0.0389005012512207	-0.09196009826660156	0.9992080078125	-0.034983100891113283	-0.06269079971313476	0.977468994140625	-0.01139459991455078	-0.12151599884033203	0.992239013671875	-0.015583900451660157	-0.10242500305175781	0.992823974609375	-0.02001180076599121	-0.08538009643554688	0.9928740234375	-0.027609899520874025	-0.058677799224853514	0.9944190063476562	-0.06719920349121093	-0.001304790019989013	1.01802001953125
4	0.13333333333333333	-0.04729970169067383	-0.10355899810791015	1.011260009765625	-0.06576409912109375	-0.08834130096435547	1.0139099731445314	-0.07965989685058594	-0.06757399749755859	1.0111699829101561	-0.07781539916992188	-0.03850790023803711	1.012280029296875	-0.07634880065917969	-0.14789999389648437	0.985176025390625	-0.07708319854736329	-0.1278939971923828	0.982093994140625	-0.07732620239257812	-0.10780599975585937	0.9754810180664063	-0.07380410003662109	-0.07103820037841797	0.9669400024414062	-0.0679542007446289	-0.06852439880371093	0.9998380126953125	-0.06405629730224609	-0.08219380187988282	1.00125	-0.05670389938354492	-0.0975811996459961	0.991135986328125	-0.05224800109863281	-0.06622209930419921	0.9657369995117188	-0.054355400085449215	-0.06657279968261719	1.0155599975585938	-0.04993159866333008	-0.0805624008178711	1.009219970703125	-0.03951330184936523	-0.09182389831542968	0.9992659912109375	-0.035795299530029294	-0.062176101684570315	0.9774190063476562	-0.012144000053405761	-0.12103800201416015	0.9920289916992188	-0.01628269958496094	-0.10193299865722656	0.992572998046875	-0.020696699142456056	-0.08482759857177734	0.9927750244140625	-0.028237400054931642	-0.05815029907226563	0.9941599731445312	-0.06769069671630859	-0.000797716975212097	1.01797998046875
5	0.16666666666666666	-0.047428199768066406	-0.10323400115966797	1.0114199829101562	-0.06579620361328126	-0.08799690246582031	1.01422998046875	-0.07990789794921875	-0.06732199859619141	1.0115800170898437	-0.07818000030517579	-0.038372100830078124	1.0125800170898438	-0.0763407974243164	-0.14768099975585938	0.9858079833984374	-0.07715579986572266	-0.12766100311279296	0.9826199951171875	-0.07756079864501954	-0.10764099884033203	0.9759340209960937	-0.07414720153808593	-0.07104920196533203	0.9676110229492187	-0.06808029937744141	-0.06835030364990234	1.0003599853515626	-0.06411350250244141	-0.08192960357666015	1.0015700073242189	-0.05690650177001953	-0.09734519958496093	0.9914450073242187	-0.052714900970458986	-0.06603330230712891	0.9659290161132813	-0.05482849884033203	-0.06601570129394531	1.01547998046875	-0.050281299591064456	-0.08047669982910156	1.0088400268554687	-0.03954919815063476	-0.0914666976928711	0.9990889892578125	-0.03625299835205078	-0.06199850082397461	0.9775029907226562	-0.012353300094604492	-0.12062300109863282	0.9922860107421875	-0.0165093994140625	-0.10156099700927734	0.99272802734375	-0.02091080093383789	-0.08455850219726563	0.9927249755859375	-0.02854560089111328	-0.057692501068115236	0.9944829711914063	-0.06814910125732422	-0.000654604017734527	1.0182899780273438
6	0.2	-0.047821399688720706	-0.10316100311279297	1.01152001953125	-0.06612519836425781	-0.08805149841308593	1.0143099975585939	-0.08022830200195312	-0.067372802734375	1.0116799926757813	-0.07838379669189453	-0.03844070053100586	1.0127899780273437	-0.07685440063476562	-0.14755999755859375	0.9859949951171875	-0.07763240051269531	-0.12752400207519532	0.9827899780273438	-0.07805789947509766	-0.10747699737548828	0.9761179809570313	-0.0748134994506836	-0.07071710205078124	0.9677429809570313	-0.06853240203857422	-0.06800160217285156	1.000719970703125	-0.06457440185546875	-0.08207849884033203	1.0016599731445313	-0.05733430099487305	-0.09734700012207032	0.9915089721679687	-0.05319779968261719	-0.06593450164794921	0.9661160278320312	-0.05437369918823242	-0.06648159790039063	1.015760009765625	-0.050610198974609374	-0.07969660186767578	1.009219970703125	-0.039883598327636716	-0.09133149719238282	0.9983159790039062	-0.036617198944091794	-0.06196640014648438	0.9775070190429688	-0.012805700302124023	-0.12067800140380859	0.99227001953125	-0.016915599822998048	-0.10159200286865235	0.9926840209960938	-0.021300199508666993	-0.0845553970336914	0.9927210083007812	-0.02887619972229004	-0.058036998748779295	0.9941710205078125	-0.06843109893798828	-0.0005998929738998411	1.01872998046875
7	0.23333333333333334	-0.047839298248291015	-0.10344899749755859	1.0115800170898437	-0.06616719818115234	-0.08828910064697265	1.0145700073242188	-0.080356201171875	-0.06746589660644531	1.0119199829101562	-0.07847769927978515	-0.03854219818115234	1.0130700073242187	-0.07694719696044922	-0.14762100219726562	0.9864089965820313	-0.07777089691162109	-0.1276269989013672	0.983156005859375	-0.07823989868164062	-0.10758200073242187	0.97643798828125	-0.0750459976196289	-0.07088330078125	0.9680579833984375	-0.06887020111083984	-0.06783769989013672	1.0014600219726562	-0.064868896484375	-0.08205139923095703	1.0020900268554687	-0.057483898162841794	-0.09746209716796875	0.9915650024414062	-0.05344499969482422	-0.06598860168457031	0.9664080200195313	-0.054549800872802735	-0.06676370239257813	1.0151699829101561	-0.05026739883422852	-0.08029660034179688	1.0094199829101562	-0.040015499114990236	-0.09139450073242188	0.9984929809570312	-0.0367859992980957	-0.06193619918823242	0.9777540283203126	-0.012610600471496583	-0.12065499877929688	0.99243701171875	-0.01683169937133789	-0.10160700225830079	0.9928410034179688	-0.02131369972229004	-0.084618896484375	0.9928369750976562	-0.029081499099731446	-0.05780400085449219	0.99468798828125	-0.06854440307617188	-0.0007193300127983091	1.0190999755859376
